<svg width="99" height="24" viewBox="0 0 99 24" fill="none" xmlns="http://www.w3.org/2000/svg">
<path d="M85.6169 2.63614H84.179V0H88.8693V12.9068H90.4441L94.2785 5.34074H97.8048L92.7379 14.8582L92.8064 13.0437L96.6065 20.9864H98.0444V23.6225H94.21L90.4441 15.4402H88.8693V23.6225H85.6169V2.63614Z" fill="#10100F"/>
<path d="M78.2151 23.9649C76.8229 23.9649 75.6817 23.634 74.7916 22.9721C73.9014 22.3102 73.2395 21.2831 72.8059 19.8909C72.3722 18.4986 72.1554 16.6956 72.1554 14.4817C72.1554 12.2678 72.3722 10.4647 72.8059 9.07244C73.2395 7.6802 73.9014 6.65313 74.7916 5.99124C75.6817 5.32936 76.8229 4.99841 78.2151 4.99841C79.9497 4.99841 81.2849 5.52336 82.2207 6.57325C83.1564 7.62314 83.7384 9.28927 83.9667 11.5716H80.6801V10.7842C80.6801 10.1908 80.5888 9.67727 80.4062 9.24362C80.2464 8.78715 79.9839 8.44479 79.6188 8.21655C79.2536 7.96549 78.7857 7.83996 78.2151 7.83996C77.3022 7.83996 76.6403 8.14808 76.2295 8.76432C75.8186 9.38056 75.6132 10.362 75.6132 11.7086V17.2547C75.6132 18.6013 75.8186 19.5828 76.2295 20.199C76.6403 20.8152 77.3022 21.1234 78.2151 21.1234C78.7857 21.1234 79.2536 20.9978 79.6188 20.7468C79.9839 20.4957 80.2464 20.1419 80.4062 19.6855C80.5888 19.229 80.6801 18.6698 80.6801 18.0079V17.1178H83.9667C83.7841 19.4915 83.2249 21.2261 82.2891 22.3216C81.3534 23.4171 79.9954 23.9649 78.2151 23.9649Z" fill="#10100F"/>
<path d="M63.3515 23.9649C62.0278 23.9649 61.0007 23.5312 60.2703 22.6639C59.54 21.7966 59.1748 20.5528 59.1748 18.9323C59.1748 17.2433 59.5742 15.931 60.373 14.9952C61.1947 14.0594 62.45 13.4888 64.139 13.2834L67.2544 12.8726V15.2691L64.8579 15.5772C64.0362 15.6913 63.4428 15.9424 63.0777 16.3304C62.7125 16.7184 62.5299 17.3118 62.5299 18.1106V18.7611C62.5299 19.5828 62.7125 20.199 63.0777 20.6098C63.4657 20.9978 64.0362 21.1918 64.7894 21.1918C65.6567 21.1918 66.2844 20.9636 66.6724 20.5071C67.0604 20.0278 67.2544 19.2632 67.2544 18.2133V14.6871V14.1393V10.9896C67.2544 9.87127 67.0718 9.07244 66.7066 8.59315C66.3643 8.09102 65.7937 7.83996 64.9948 7.83996C64.1732 7.83996 63.5798 8.07961 63.2146 8.55891C62.8494 9.01538 62.6668 9.67727 62.6668 10.5446V11.0923H59.4487C59.6541 8.92409 60.2019 7.37208 61.092 6.43631C61.9821 5.47771 63.2945 4.99841 65.0291 4.99841C66.855 4.99841 68.2244 5.50053 69.1373 6.50478C70.0503 7.4862 70.5068 8.95832 70.5068 10.9212V20.9864H71.9447V23.6225H70.0275C69.3199 23.6225 68.7722 23.4285 68.3842 23.0405C68.019 22.6525 67.8364 22.1048 67.8364 21.3972V20.6783H67.0832C66.8778 21.7966 66.467 22.6297 65.8507 23.1775C65.2573 23.7024 64.4243 23.9649 63.3515 23.9649Z" fill="#10100F"/>
<path d="M55.077 23.6224C54.3466 23.6224 53.7874 23.4284 53.3994 23.0404C53.0114 22.6524 52.8174 22.0818 52.8174 21.3287V5.34067L54.0841 1.91711H56.0698V20.9863H58.6375V23.6224H55.077ZM50.7633 5.34067H58.6375V7.9768H50.7633V5.34067Z" fill="#10100F"/>
<path d="M44.9545 23.9649C43.1742 23.9649 41.839 23.497 40.9489 22.5612C40.0588 21.6255 39.4996 20.062 39.2714 17.871H42.4895V18.4872C42.4895 19.0578 42.5694 19.5485 42.7292 19.9593C42.9118 20.3473 43.1742 20.6555 43.5166 20.8837C43.8818 21.1119 44.3611 21.2261 44.9545 21.2261C45.7761 21.2261 46.3924 21.0435 46.8032 20.6783C47.214 20.2903 47.4194 19.7311 47.4194 19.0007C47.4194 18.3845 47.2711 17.8938 46.9744 17.5286C46.7005 17.1406 46.1984 16.7754 45.468 16.4331L42.9003 15.3033C41.645 14.7099 40.7435 14.0366 40.1957 13.2834C39.648 12.5074 39.3741 11.5032 39.3741 10.2707C39.3741 8.58173 39.8534 7.28078 40.812 6.36783C41.7706 5.45489 43.1628 4.99841 44.9887 4.99841C46.7461 4.99841 48.0699 5.4663 48.96 6.40207C49.8502 7.33784 50.4093 8.90126 50.6376 11.0923H47.4879V10.4761C47.4879 9.92833 47.3966 9.44903 47.214 9.03821C47.0543 8.62738 46.7918 8.30785 46.4266 8.07961C46.0614 7.85137 45.5821 7.73726 44.9887 7.73726C44.1899 7.73726 43.5851 7.93126 43.1742 8.31926C42.7634 8.68444 42.558 9.23221 42.558 9.96257C42.558 10.6016 42.6949 11.1038 42.9688 11.4689C43.2655 11.8341 43.7676 12.1879 44.4752 12.5302L47.0428 13.66C48.321 14.2762 49.2339 14.961 49.7817 15.7141C50.3523 16.4673 50.6376 17.4487 50.6376 18.6584C50.6376 20.3702 50.1469 21.6825 49.1654 22.5955C48.2068 23.5084 46.8032 23.9649 44.9545 23.9649Z" fill="#10100F"/>
<path d="M33.6006 23.9649C32.5963 23.9649 31.7861 23.6796 31.1699 23.109C30.5536 22.5156 30.1428 21.6597 29.9374 20.5413H29.1842V23.6225H26.5138V2.63614H25.0759V0H29.7662V3.83438C29.7662 4.65603 29.6521 6.09393 29.4239 8.14806H30.1428C30.371 7.09817 30.7705 6.31075 31.341 5.78581C31.9116 5.26086 32.6648 4.99839 33.6006 4.99839C34.6733 4.99839 35.5634 5.34074 36.271 6.02546C37.0013 6.71017 37.5377 7.76006 37.88 9.17512C38.2452 10.5674 38.4278 12.3362 38.4278 14.4816C38.4278 16.6271 38.2452 18.4073 37.88 19.8224C37.5377 21.2146 37.0013 22.2531 36.271 22.9378C35.5634 23.6225 34.6733 23.9649 33.6006 23.9649ZM32.3681 21.1233C33.2811 21.1233 33.9429 20.8152 34.3538 20.199C34.7646 19.5827 34.97 18.5899 34.97 17.2205V11.7428C34.97 10.3734 34.7646 9.38054 34.3538 8.7643C33.9429 8.14806 33.2811 7.83994 32.3681 7.83994C31.4552 7.83994 30.7933 8.14806 30.3825 8.7643C29.9716 9.38054 29.7662 10.3734 29.7662 11.7428V17.2205C29.7662 18.5899 29.9716 19.5827 30.3825 20.199C30.7933 20.8152 31.4552 21.1233 32.3681 21.1233Z" fill="#10100F"/>
<path d="M17.0253 23.9649C15.7015 23.9649 14.6744 23.5312 13.9441 22.6639C13.2137 21.7966 12.8485 20.5528 12.8485 18.9323C12.8485 17.2433 13.2479 15.931 14.0468 14.9952C14.8684 14.0594 16.1237 13.4888 17.8127 13.2834L20.9281 12.8726V15.2691L18.5316 15.5772C17.71 15.6913 17.1166 15.9424 16.7514 16.3304C16.3862 16.7184 16.2036 17.3118 16.2036 18.1106V18.7611C16.2036 19.5828 16.3862 20.199 16.7514 20.6098C17.1394 20.9978 17.71 21.1918 18.4632 21.1918C19.3305 21.1918 19.9581 20.9636 20.3461 20.5071C20.7341 20.0278 20.9281 19.2632 20.9281 18.2133V14.6871V14.1393V10.9896C20.9281 9.87127 20.7455 9.07244 20.3803 8.59315C20.038 8.09102 19.4674 7.83996 18.6686 7.83996C17.8469 7.83996 17.2535 8.07961 16.8883 8.55891C16.5231 9.01538 16.3405 9.67727 16.3405 10.5446V11.0923H13.1224C13.3278 8.92409 13.8756 7.37208 14.7657 6.43631C15.6558 5.47771 16.9682 4.99841 18.7028 4.99841C20.5287 4.99841 21.8981 5.50053 22.8111 6.50478C23.724 7.4862 24.1805 8.95832 24.1805 10.9212V20.9864H25.6184V23.6225H23.7012C22.9937 23.6225 22.4459 23.4285 22.0579 23.0405C21.6927 22.6525 21.5101 22.1048 21.5101 21.3972V20.6783H20.7569C20.5515 21.7966 20.1407 22.6297 19.5245 23.1775C18.931 23.7024 18.098 23.9649 17.0253 23.9649Z" fill="#10100F"/>
<path d="M5.03262 2.7389H2.80731V6.94987H0V6.10352e-05H13.3861V6.94987H10.5788V2.7389H8.31923V23.6226H5.03262V2.7389Z" fill="#10100F"/>
</svg>
